<svg width="300" height="300" viewBox="0 0 300 300" fill="none" xmlns="http://www.w3.org/2000/svg">
<circle cx="10" cy="10" r="10" fill="#5D5DDB"/>
<circle cx="10" cy="80" r="10" fill="#5D5DDB"/>
<circle cx="10" cy="150" r="10" fill="#5D5DDB"/>
<circle cx="10" cy="220" r="10" fill="#5D5DDB"/>
<circle cx="10" cy="290" r="10" fill="#5D5DDB"/>
<circle cx="80" cy="10" r="10" fill="#5D5DDB"/>
<circle cx="80" cy="80" r="10" fill="#5D5DDB"/>
<circle cx="80" cy="150" r="10" fill="#5D5DDB"/>
<circle cx="80" cy="220" r="10" fill="#5D5DDB"/>
<circle cx="80" cy="290" r="10" fill="#5D5DDB"/>
<circle cx="150" cy="10" r="10" fill="#5D5DDB"/>
<circle cx="150" cy="80" r="10" fill="#5D5DDB"/>
<circle cx="150" cy="150" r="10" fill="#5D5DDB"/>
<circle cx="150" cy="220" r="10" fill="#5D5DDB"/>
<circle cx="150" cy="290" r="10" fill="#5D5DDB"/>
<circle cx="220" cy="10" r="10" fill="#5D5DDB"/>
<circle cx="220" cy="80" r="10" fill="#5D5DDB"/>
<circle cx="220" cy="150" r="10" fill="#5D5DDB"/>
<circle cx="220" cy="220" r="10" fill="#5D5DDB"/>
<circle cx="220" cy="290" r="10" fill="#5D5DDB"/>
<circle cx="290" cy="10" r="10" fill="#5D5DDB"/>
<circle cx="290" cy="80" r="10" fill="#5D5DDB"/>
<circle cx="290" cy="150" r="10" fill="#5D5DDB"/>
<circle cx="290" cy="220" r="10" fill="#5D5DDB"/>
<circle cx="290" cy="290" r="10" fill="#5D5DDB"/>
<circle cx="290" cy="10" r="10" fill="#5D5DDB"/>
<circle cx="290" cy="80" r="10" fill="#5D5DDB"/>
<circle cx="290" cy="150" r="10" fill="#5D5DDB"/>
<circle cx="290" cy="220" r="10" fill="#5D5DDB"/>
<circle cx="290" cy="290" r="10" fill="#5D5DDB"/>
</svg>
