<svg width="173" height="154" viewBox="0 0 173 154" fill="none" xmlns="http://www.w3.org/2000/svg">
<circle cx="88.1534" cy="75.793" r="64.085" fill="black"/>
<circle cx="88.1525" cy="75.7931" r="48.3439" stroke="white" stroke-width="3" stroke-dasharray="10 10"/>
<path d="M66.2783 81.2867L72.1585 61.0581L94.5876 55.3589L109.411 70.3267L103.531 90.5553L81.1019 96.2544L66.2783 81.2867Z" stroke="white"/>
<path d="M76.5505 74.7672L95.6308 59.0599L104.176 67.6047L84.594 84.338M93.8507 67.6047L72.845 85.4059L81.0337 93.9505L102.751 75.4373" stroke="white" stroke-width="5"/>
<path d="M137.904 133.554C140.996 133.132 148.445 129.338 153.504 117.533M137.904 152.526C147.742 149.294 168.092 135.409 170.79 114.16" stroke="#74EBD5" stroke-width="3"/>
<path d="M34.3265 20.5338C31.2621 21.1226 24.0305 25.3157 19.6192 37.378M33.2969 1.58926C23.6492 5.35071 4.08285 20.3196 2.54163 41.684" stroke="#74EBD5" stroke-width="3"/>
</svg>
