<svg width="154" height="154" viewBox="0 0 154 154" fill="none" xmlns="http://www.w3.org/2000/svg">
<path d="M141.083 0.443716L45.1757 28.7678C43.2288 29.3794 41.5278 30.5959 40.3197 32.2407C39.1117 33.8854 38.4597 35.8726 38.4585 37.9134V116.273C35.3177 115.51 32.0988 115.116 28.8668 115.098C12.9806 115.098 0.0917969 123.689 0.0917969 134.282C0.0917969 144.876 12.9806 153.467 28.8668 153.467C44.753 153.467 57.6418 144.876 57.6418 134.282V64.235L134.375 41.7533V97.0914C131.235 96.3264 128.016 95.931 124.784 95.9134C108.897 95.9134 96.0085 104.504 96.0085 115.098C96.0085 125.691 108.897 134.282 124.784 134.282C140.67 134.282 153.559 125.694 153.559 115.098V9.58331C153.557 8.07745 153.201 6.59308 152.52 5.25032C151.838 3.90756 150.85 2.74415 149.635 1.85423C148.421 0.964316 147.013 0.372903 145.528 0.127857C144.042 -0.117189 142.52 -0.00898392 141.083 0.443716Z" fill="#FE1C6C"/>
</svg>
