<svg width="1920" height="422" viewBox="0 0 1920 422" fill="none" xmlns="http://www.w3.org/2000/svg">
<path d="M-5.90015 314.541L100.775 233.94L219.845 288.807L376.079 174.878L498.264 257.068L567.817 180.699L708.222 257.792L818.54 124.439L900.591 211.204L963.623 135.578L1087.22 230.188L1220.47 106.298L1333.29 186.537L1440.2 81.2504L1516.12 141.035L1601.23 62.8934L1720.06 142.446L1792.86 41.0479L1862.77 101.519L1913.77 31.794" stroke="white" stroke-width="3"/>
<path d="M-6.18336 348.541L100.492 267.94L219.562 322.807L375.796 208.878L497.98 291.068L567.533 214.699L707.939 291.792L818.256 158.439L900.308 245.204L963.34 169.578L1086.94 264.188L1220.19 140.298L1333 220.537L1439.91 115.25L1515.84 175.035L1600.94 96.8934L1719.78 176.446L1792.58 75.0479L1862.48 135.519L1913.48 65.794" stroke="white" stroke-width="3"/>
<path d="M-6.18336 381.541L100.492 300.94L219.562 355.807L375.796 241.878L497.98 324.068L567.533 247.699L707.939 324.792L818.256 191.439L900.308 278.204L963.34 202.578L1086.94 297.188L1220.19 173.298L1333 253.537L1439.91 148.25L1515.84 208.035L1600.94 129.893L1719.78 209.446L1792.58 108.048L1862.48 168.519L1913.48 98.794" stroke="white" stroke-width="3"/>
</svg>
