<?xml version="1.0" standalone="no"?>
<svg id="Group1" width="660" height="108" viewBox="0 0 660 108" fill="none" xmlns="http://www.w3.org/2000/svg" style="max-width: 100%; max-height: 100%;">
<path d="M1 53.6837L61.0846 17.1269L105.049 53.6837L162.203 17.1269L213.494 53.6837L283.837 2L332.198 53.6837L371.766 23.4298L414.265 53.6837L483.143 17.1269L546.158 53.6837L606.243 9.56347L659 53.6837" stroke="white" stroke-width="3" stroke-dasharray="0,0,0,812.5340576171875"><animate attributeType="XML" attributeName="stroke-dasharray" repeatCount="1" dur="3.3333333333333335s" values="0,0,0,812.5340576171875; 
          0,406.26702880859375,406.26702880859375,0; 
          812.5340576171875,0,0,0" keyTimes="0; 0.5; 1" fill="freeze"></animate></path>
<path d="M1 78.8953L61.0846 42.3385L105.049 78.8953L162.203 42.3385L213.494 78.8953L283.837 27.2116L332.198 78.8953L371.766 48.6414L414.265 78.8953L483.143 42.3385L546.158 78.8953L606.243 34.7751L659 78.8953" stroke="white" stroke-width="3" stroke-dasharray="0,0,0,812.5339965820312"><animate attributeType="XML" attributeName="stroke-dasharray" repeatCount="1" dur="3.3333333333333335s" values="0,0,0,812.5339965820312; 
          0,406.2669982910156,406.2669982910156,0; 
          812.5339965820312,0,0,0" keyTimes="0; 0.5; 1" fill="freeze"></animate></path>
<path d="M1 105.367L61.0846 68.8107L105.049 105.367L162.203 68.8107L213.494 105.367L283.837 53.6837L332.198 105.367L371.766 75.1136L414.265 105.367L483.143 68.8107L546.158 105.367L606.243 61.2472L659 105.367" stroke="white" stroke-width="3" stroke-dasharray="0,0,0,812.5308227539062"><animate attributeType="XML" attributeName="stroke-dasharray" repeatCount="1" dur="3.3333333333333335s" values="0,0,0,812.5308227539062; 
          0,406.2654113769531,406.2654113769531,0; 
          812.5308227539062,0,0,0" keyTimes="0; 0.5; 1" fill="freeze"></animate></path>
<setting>{"type":"direct","speed":15,"random":1,"shift":1,"size":1,"rupture":50}</setting></svg>