<svg width="43" height="173" viewBox="0 0 43 173" fill="none" xmlns="http://www.w3.org/2000/svg">
<g filter="url(#filter0_dd_3170_7810)">
<path d="M12.2752 60H26.7444V64.4726C26.7444 67.7471 25.6435 70.0833 22.3604 70.0833C19.1953 70.0833 17.7602 67.7471 17.7602 64.5524V62.3361H12.2752V60ZM19.5885 62.3361V64.3328C19.5885 66.6689 20.4731 67.7871 22.3604 67.7871C24.287 67.7871 24.8965 66.5891 24.8965 64.233V62.3361H19.5885Z" fill="white"/>
<path d="M12.2752 71.8377L26.7444 76.6897V79.3852L12.2752 84.2371V81.7812L20.1193 79.4251C21.692 78.9259 23.3237 78.4867 24.9358 78.0274V77.9476C23.3041 77.5083 21.692 77.069 20.1193 76.5699L12.2752 74.1938V71.8377ZM16.384 74.5732H18.173V81.4418H16.384V74.5732Z" fill="white"/>
<path d="M12 93.8701C12 89.9566 14.713 87.0614 19.4705 87.0614C24.1887 87.0614 27 90.0364 27 93.93C27 96.0065 26.0957 97.4042 25.1913 98.3027L23.7169 97.0448C24.4443 96.306 25.0144 95.4075 25.0144 94.0098C25.0144 91.2544 22.9305 89.4574 19.5491 89.4574C16.1088 89.4574 14.0052 91.0747 14.0052 94.1097C14.0052 95.0082 14.2608 95.9067 14.713 96.4059H18.0944V93.5107H19.9817V98.5223H13.7104C12.7274 97.544 12 95.8667 12 93.8701Z" fill="white"/>
<path d="M12.2752 103.857H26.7444V112.562H24.8178V106.193H20.8073V111.564H18.8611V106.193H14.2018V112.782H12.2752V103.857Z" fill="white"/>
<path d="M12.2752 127.302H24.8178V122.99H26.7444L26.7444 133.951H24.8178L24.8178 129.639H12.2752V127.302Z" fill="white"/>
<path d="M12 143.478C12 139.684 14.8899 137.068 19.5688 137.068C24.228 137.068 27 139.684 27 143.478C27 147.251 24.228 149.867 19.5688 149.867C14.8899 149.867 12 147.251 12 143.478ZM14.0052 143.478C14.0052 145.914 16.1874 147.491 19.5688 147.491C22.9502 147.491 25.0144 145.914 25.0144 143.478C25.0144 141.022 22.9502 139.464 19.5688 139.464C16.1874 139.464 14.0052 141.022 14.0052 143.478Z" fill="white"/>
<path d="M12.2752 154.917H26.7444V159.389C26.7444 162.664 25.6435 165 22.3604 165C19.1953 165 17.7602 162.664 17.7602 159.469V157.253H12.2752L12.2752 154.917ZM19.5885 157.253V159.25C19.5885 161.586 20.4731 162.704 22.3604 162.704C24.287 162.704 24.8965 161.506 24.8965 159.15V157.253H19.5885Z" fill="white"/>
</g>
<g filter="url(#filter1_dd_3170_7810)">
<path d="M20 5L34.7224 30.5H5.27757L20 5Z" fill="white"/>
</g>
<defs>
<filter id="filter0_dd_3170_7810" x="7" y="55" width="28" height="118" filterUnits="userSpaceOnUse" color-interpolation-filters="sRGB">
<feFlood flood-opacity="0" result="BackgroundImageFix"/>
<feColorMatrix in="SourceAlpha" type="matrix" values="0 0 0 0 0 0 0 0 0 0 0 0 0 0 0 0 0 0 127 0" result="hardAlpha"/>
<feOffset dx="4" dy="4"/>
<feGaussianBlur stdDeviation="2"/>
<feComposite in2="hardAlpha" operator="out"/>
<feColorMatrix type="matrix" values="0 0 0 0 0.454902 0 0 0 0 0.921569 0 0 0 0 0.835294 0 0 0 0.25 0"/>
<feBlend mode="normal" in2="BackgroundImageFix" result="effect1_dropShadow_3170_7810"/>
<feColorMatrix in="SourceAlpha" type="matrix" values="0 0 0 0 0 0 0 0 0 0 0 0 0 0 0 0 0 0 127 0" result="hardAlpha"/>
<feOffset/>
<feGaussianBlur stdDeviation="2.5"/>
<feComposite in2="hardAlpha" operator="out"/>
<feColorMatrix type="matrix" values="0 0 0 0 0.145098 0 0 0 0 0.145098 0 0 0 0 0.145098 0 0 0 0.4 0"/>
<feBlend mode="normal" in2="effect1_dropShadow_3170_7810" result="effect2_dropShadow_3170_7810"/>
<feBlend mode="normal" in="SourceGraphic" in2="effect2_dropShadow_3170_7810" result="shape"/>
</filter>
<filter id="filter1_dd_3170_7810" x="0.277344" y="0" width="42.4453" height="38.5" filterUnits="userSpaceOnUse" color-interpolation-filters="sRGB">
<feFlood flood-opacity="0" result="BackgroundImageFix"/>
<feColorMatrix in="SourceAlpha" type="matrix" values="0 0 0 0 0 0 0 0 0 0 0 0 0 0 0 0 0 0 127 0" result="hardAlpha"/>
<feOffset dx="4" dy="4"/>
<feGaussianBlur stdDeviation="2"/>
<feComposite in2="hardAlpha" operator="out"/>
<feColorMatrix type="matrix" values="0 0 0 0 0.454902 0 0 0 0 0.921569 0 0 0 0 0.835294 0 0 0 0.25 0"/>
<feBlend mode="normal" in2="BackgroundImageFix" result="effect1_dropShadow_3170_7810"/>
<feColorMatrix in="SourceAlpha" type="matrix" values="0 0 0 0 0 0 0 0 0 0 0 0 0 0 0 0 0 0 127 0" result="hardAlpha"/>
<feOffset/>
<feGaussianBlur stdDeviation="2.5"/>
<feComposite in2="hardAlpha" operator="out"/>
<feColorMatrix type="matrix" values="0 0 0 0 0.145098 0 0 0 0 0.145098 0 0 0 0 0.145098 0 0 0 0.2 0"/>
<feBlend mode="normal" in2="effect1_dropShadow_3170_7810" result="effect2_dropShadow_3170_7810"/>
<feBlend mode="normal" in="SourceGraphic" in2="effect2_dropShadow_3170_7810" result="shape"/>
</filter>
</defs>
</svg>
