<svg width="30" height="30" viewBox="0 0 30 30" fill="none" xmlns="http://www.w3.org/2000/svg">
<path d="M4.08163 25.5035C6.95821 25.5035 9.2517 24.1686 10.9621 21.4988C10.9621 21.3115 10.8649 21.1475 10.6706 21.007L9.56268 18.3372C9.05734 19.6019 8.30904 20.6206 7.31778 21.3934C6.32653 22.1663 5.24781 22.5527 4.08163 22.5527H1.22449C0.913508 22.5527 0.631681 22.7049 0.379009 23.0094C0.126336 23.3138 0 23.6534 0 24.0281C0 24.4028 0.126336 24.7424 0.379009 25.0468C0.631681 25.3513 0.913508 25.5035 1.22449 25.5035H4.08163ZM25.7726 0.491803C25.1506 -0.163934 24.5675 -0.163934 24.0233 0.491803C23.4402 1.19438 23.4402 1.89696 24.0233 2.59953L25.5977 4.56674H20.758C17.9203 4.56674 15.6463 5.90164 13.9359 8.57143C13.9359 8.71194 14.0136 8.87588 14.1691 9.06323L15.277 11.733C15.7823 10.4684 16.5306 9.44965 17.5219 8.67682C18.5131 7.90398 19.5918 7.51756 20.758 7.51756H25.5977L24.0233 9.48478C23.4402 10.1874 23.4402 10.8899 24.0233 11.5925C24.2566 11.8735 24.5481 12.0141 24.898 12.0141C25.1701 12.0141 25.4616 11.8735 25.7726 11.5925L29.5044 7.09602C30.0097 6.39344 30.0097 5.69087 29.5044 4.98829L25.7726 0.491803ZM25.7726 18.4778C25.1506 17.822 24.5675 17.822 24.0233 18.4778C23.4402 19.1803 23.4402 19.8829 24.0233 20.5855L25.5977 22.5527H20.758C19.5918 22.5527 18.5034 22.1663 17.4927 21.3934C16.482 20.6206 15.7046 19.6019 15.1603 18.3372L13.8192 15.0351L12.4198 11.733L11.8367 10.3981C11.137 8.61827 10.0875 7.20141 8.68805 6.14754C7.28863 5.09368 5.75316 4.56674 4.08163 4.56674H1.22449C0.913508 4.56674 0.631681 4.71897 0.379009 5.02342C0.126336 5.32787 0 5.66745 0 6.04215C0 6.41686 0.126336 6.75644 0.379009 7.06089C0.631681 7.36534 0.913508 7.51756 1.22449 7.51756H4.08163C6.56948 7.51756 8.43537 8.92272 9.6793 11.733L11.0787 15.0351L12.4198 18.3372L13.0612 19.6721C13.8387 21.452 14.9174 22.8689 16.2974 23.9227C17.6774 24.9766 19.2031 25.5035 20.8746 25.5035H25.7726L24.1399 27.4707C23.5569 28.1733 23.5569 28.8759 24.1399 29.5785C24.3732 29.8595 24.6647 30 25.0146 30C25.3256 30 25.6171 29.8595 25.8892 29.5785L29.621 25.082C30.1263 24.3794 30.1263 23.6768 29.621 22.9742L25.7726 18.4778Z" fill="white"/>
</svg>
