<svg width="30" height="30" viewBox="0 0 30 30" fill="none" xmlns="http://www.w3.org/2000/svg">
<path d="M11.1995 3.44075L6.56562 8.99987H1.25C0.559375 8.99987 0 9.67109 0 10.4998V19.4994C0 20.3275 0.559375 20.9993 1.25 20.9993H6.56562L11.1995 26.5584C11.9823 27.4977 13.3333 26.8378 13.3333 25.4978V4.50133C13.3333 3.16014 11.9812 2.50267 11.1995 3.44075ZM23.3516 0.248403C22.7698 -0.209701 21.988 -0.0165845 21.6062 0.682758C21.224 1.38085 21.3865 2.31893 21.9682 2.77703C25.4198 5.49503 27.4797 10.0642 27.4797 15.0002C27.4797 19.9362 25.4198 24.5054 21.9682 27.2234C21.3865 27.6809 21.224 28.6196 21.6062 29.317C21.9729 29.9864 22.7484 30.227 23.3516 29.7514C27.5141 26.4728 30 20.9574 30 14.9996C30 9.04174 27.5141 3.527 23.3516 0.248403ZM25 14.9996C25 11.0291 23.3302 7.37869 20.5328 5.23504C19.95 4.78881 19.1771 4.9963 18.8078 5.70127C18.4385 6.40624 18.6109 7.33932 19.1937 7.78617C21.2641 9.37297 22.5 12.0691 22.5 14.9996C22.5 17.9301 21.2641 20.6262 19.1937 22.213C18.6109 22.6592 18.4385 23.5923 18.8078 24.2979C19.1469 24.9454 19.9078 25.2441 20.5328 24.7641C23.3302 22.6205 25 18.9706 25 14.9996ZM17.6161 10.1954C17.013 9.79983 16.2521 10.0604 15.9177 10.786C15.5849 11.5116 15.8052 12.4235 16.4099 12.8241C17.0823 13.2672 17.5 14.1015 17.5 14.9996C17.5 15.8983 17.0823 16.732 16.4104 17.1751C15.8057 17.5757 15.5854 18.4875 15.9182 19.2131C16.2531 19.9419 17.0146 20.2006 17.6167 19.8037C19.087 18.8319 20.0005 16.9914 20.0005 14.999C20.0005 13.0066 19.087 11.1666 17.6161 10.1954Z" fill="white"/>
</svg>
