<svg width="93" height="35" viewBox="0 0 93 35" fill="none" xmlns="http://www.w3.org/2000/svg">
<rect x="0.5" y="0.5" width="92" height="34" rx="17" fill="#74EBD5" stroke="#74EBD5"/>
<path d="M49.704 11.77H57.372V16.558H49.704V15.406H56.058V12.904H49.704V11.77ZM52.602 9.826L54.15 10.078C53.79 10.96 53.394 11.878 53.052 12.49L51.828 12.22C52.098 11.536 52.44 10.528 52.602 9.826ZM49.056 11.77H50.352V23.434H49.056V11.77ZM49.794 18.232H58.074V23.434H49.794V22.3H56.778V19.384H49.794V18.232ZM43.494 10.6L44.502 9.988C45.33 10.87 46.32 12.022 46.824 12.742L45.78 13.48C45.294 12.742 44.286 11.482 43.494 10.6ZM42.846 14.038H46.788V15.172H42.846V14.038ZM46.05 22.3C47.166 24.658 49.506 24.982 53.088 24.982C54.978 24.982 57.624 24.892 59.46 24.748C59.262 25.036 59.082 25.666 59.01 26.044C57.318 26.134 55.05 26.188 53.07 26.188C48.858 26.188 46.5 25.684 45.15 22.714L46.05 22.3ZM46.374 18.538H46.698L46.932 18.502L47.598 18.754C46.968 22.606 45.438 25.144 43.404 26.494C43.224 26.206 42.792 25.756 42.504 25.558C44.448 24.352 45.852 22.084 46.374 18.772V18.538ZM43.116 19.888V18.862L43.764 18.538H46.77L46.752 19.636H44.196C43.728 19.636 43.26 19.744 43.116 19.888ZM43.116 19.888C43.026 19.582 42.756 18.952 42.612 18.664C42.882 18.592 43.188 18.466 43.494 18.124C44.07 17.566 45.834 15.136 46.446 14.182V14.128L46.86 13.948L47.76 14.38C46.878 15.604 45.186 17.89 44.142 19.042C44.142 19.042 43.116 19.546 43.116 19.888ZM62.484 11.842V15.028H64.932V11.842H62.484ZM61.404 10.672H66.066V16.198H61.404V10.672ZM63.384 15.586H64.482V23.956H63.384V15.586ZM61.332 17.89H62.376V24.496H61.332V17.89ZM60.63 24.208C62.106 23.884 64.32 23.272 66.498 22.696L66.624 23.848C64.608 24.424 62.484 25 60.882 25.45L60.63 24.208ZM63.96 18.826H66.192V20.014H63.96V18.826ZM71.61 9.952L72.744 10.096C72.366 12.922 71.664 15.424 70.368 17.08C70.188 16.864 69.756 16.486 69.504 16.288C70.692 14.812 71.304 12.508 71.61 9.952ZM71.556 20.698C72.186 24.388 73.644 25.036 75.39 25.036C75.696 25.036 77.01 25.036 77.442 25.018C77.28 25.324 77.118 25.882 77.064 26.206H75.3C73.014 26.206 71.43 25.378 70.638 20.968L71.556 20.698ZM73.77 19.924H76.866V21.094H73.77V19.924ZM74.886 9.952L76.002 10.06C75.696 12.886 74.994 15.226 73.572 16.756C73.428 16.54 72.996 16.144 72.744 15.964C74.058 14.596 74.634 12.472 74.886 9.952ZM74.4 13.3L75.156 12.58C76.002 13.678 77.01 15.118 77.496 16L76.65 16.828C76.2 15.892 75.21 14.398 74.4 13.3ZM71.898 12.508C72.186 12.796 73.23 14.002 73.446 14.29L72.762 15.406C72.474 14.83 71.646 13.588 71.304 13.12L71.898 12.508ZM68.694 13.984L69.81 14.308C69.09 16.324 67.92 18.682 66.588 20.284C66.444 20.05 66.12 19.618 65.922 19.42C67.128 17.962 68.19 15.748 68.694 13.984ZM68.55 9.916L69.72 10.276C69.036 11.842 67.956 13.678 66.84 14.884C66.66 14.65 66.3 14.254 66.066 14.056C67.092 12.958 68.082 11.266 68.55 9.916ZM70.674 18.34L71.826 18.394C71.736 20.878 71.466 24.55 69.882 26.458C69.684 26.278 69.288 25.918 69.036 25.774C70.476 23.956 70.638 20.554 70.674 18.34ZM73.14 16.828H74.31V25.306H73.14V16.828ZM67.704 17.044L68.658 16.108L68.838 16.162V26.422H67.704V17.044Z" fill="black"/>
<path d="M32 17.5C32 23.299 27.299 28 21.5 28C15.701 28 11 23.299 11 17.5C11 11.701 15.701 7 21.5 7C27.299 7 32 11.701 32 17.5ZM20.2855 23.0597L28.0758 15.2693C28.3403 15.0048 28.3403 14.5759 28.0758 14.3113L27.1178 13.3533C26.8533 13.0888 26.4243 13.0888 26.1598 13.3533L19.8065 19.7066L16.8402 16.7404C16.5757 16.4759 16.1468 16.4759 15.8822 16.7404L14.9242 17.6984C14.6597 17.9629 14.6597 18.3919 14.9242 18.6564L19.3274 23.0596C19.592 23.3242 20.0209 23.3242 20.2855 23.0597Z" fill="white"/>
</svg>
