<svg width="35" height="35" viewBox="0 0 35 35" fill="none" xmlns="http://www.w3.org/2000/svg">
<circle cx="17.5" cy="17.5" r="17" fill="white" stroke="#333333"/>
<path d="M24.7857 15.6786H19.3214V10.2143C19.3214 9.54377 18.7777 9 18.1071 9H16.8929C16.2223 9 15.6786 9.54377 15.6786 10.2143V15.6786H10.2143C9.54377 15.6786 9 16.2223 9 16.8929V18.1071C9 18.7777 9.54377 19.3214 10.2143 19.3214H15.6786V24.7857C15.6786 25.4562 16.2223 26 16.8929 26H18.1071C18.7777 26 19.3214 25.4562 19.3214 24.7857V19.3214H24.7857C25.4562 19.3214 26 18.7777 26 18.1071V16.8929C26 16.2223 25.4562 15.6786 24.7857 15.6786Z" fill="#FE1C6C"/>
</svg>
